<svg xmlns="http://www.w3.org/2000/svg" xmlns:xlink="http://www.w3.org/1999/xlink" width="1852" zoomAndPan="magnify" viewBox="0 0 1389 362.999992" height="484" preserveAspectRatio="xMidYMid meet" version="1.0"><defs><g/></defs><g fill="#206653" fill-opacity="1"><g transform="translate(14.765268, 229.948458)"><g><path d="M 78.875 -98.390625 L 78.71875 -82.96875 L 29.1875 -82.96875 L 29.1875 -58.21875 L 79.203125 -58.21875 L 79.203125 0 L 6.5625 0 L 6.5625 -15.578125 L 57.390625 -15.578125 L 57.5625 -42.140625 L 6.5625 -42.140625 L 6.5625 -98.390625 Z M 78.875 -98.390625 "/></g></g></g><g fill="#206653" fill-opacity="1"><g transform="translate(100.526977, 229.948458)"><g><path d="M 8.203125 -0.15625 L 8.203125 -98.546875 L 80.359375 -98.546875 L 80.359375 -83.140625 L 55.59375 -83.140625 C 39.082031 -83.140625 30.828125 -83.082031 30.828125 -82.96875 L 30.828125 -58.046875 L 54.4375 -57.890625 L 78.0625 -57.890625 L 78.0625 -42.46875 L 30.828125 -42.46875 L 30.828125 -28.859375 C 30.828125 -25.140625 30.800781 -22.238281 30.75 -20.15625 C 30.695312 -18.082031 30.722656 -16.9375 30.828125 -16.71875 L 30.828125 -15.578125 L 80.359375 -15.578125 L 80.359375 -0.15625 Z M 8.203125 -0.15625 "/></g></g></g><g fill="#206653" fill-opacity="1"><g transform="translate(187.436546, 229.948458)"><g><path d="M 8.203125 -49.359375 C 8.203125 -81.941406 8.253906 -98.285156 8.359375 -98.390625 C 8.472656 -98.492188 21.648438 -98.546875 47.890625 -98.546875 L 87.078125 -98.546875 L 87.078125 -82.96875 L 31 -82.96875 C 30.882812 -82.863281 30.828125 -71.660156 30.828125 -49.359375 L 30.828125 -15.421875 L 87.234375 -15.421875 L 87.234375 -9.515625 C 87.128906 -7.328125 87.078125 -5.578125 87.078125 -4.265625 C 87.078125 -2.953125 87.078125 -2.1875 87.078125 -1.96875 L 87.078125 0 L 47.71875 0 L 8.203125 -0.15625 Z M 8.203125 -49.359375 "/></g></g></g><g fill="#206653" fill-opacity="1"><g transform="translate(279.593498, 229.948458)"><g><path d="M 75.59375 -98.234375 L 86.75 -98.234375 C 86.851562 -98.234375 87.015625 -97.957031 87.234375 -97.40625 L 87.234375 -0.15625 L 8.203125 -0.15625 L 8.203125 -49.1875 L 8.359375 -98.0625 L 19.515625 -98.234375 L 30.671875 -98.234375 L 30.671875 -15.75 L 31.484375 -15.75 C 31.703125 -15.75 32.46875 -15.71875 33.78125 -15.65625 C 35.09375 -15.601562 36.734375 -15.578125 38.703125 -15.578125 C 40.671875 -15.578125 42.800781 -15.578125 45.09375 -15.578125 C 47.394531 -15.578125 49.582031 -15.578125 51.65625 -15.578125 L 64.609375 -15.578125 L 64.78125 -56.90625 L 64.78125 -98.0625 Z M 75.59375 -98.234375 "/></g></g></g><g fill="#206653" fill-opacity="1"><g transform="translate(375.03004, 229.948458)"><g><path d="M 8.203125 -49.03125 C 8.203125 -81.832031 8.253906 -98.285156 8.359375 -98.390625 C 8.359375 -98.492188 11.882812 -98.546875 18.9375 -98.546875 C 25.988281 -98.546875 35.53125 -98.546875 47.5625 -98.546875 L 82.3125 -98.390625 L 82.3125 -40.828125 L 69.6875 -41 L 87.078125 0 L 64.125 -0.15625 L 47.5625 -41.15625 L 30.671875 -41.15625 L 30.671875 0 L 19.515625 0 L 8.203125 -0.15625 Z M 60.84375 -69.859375 L 60.84375 -82.96875 L 30.671875 -82.96875 L 30.671875 -56.578125 L 47.234375 -56.578125 C 56.085938 -56.578125 60.566406 -56.628906 60.671875 -56.734375 C 60.785156 -56.847656 60.84375 -61.222656 60.84375 -69.859375 Z M 60.84375 -69.859375 "/></g></g></g><g fill="#206653" fill-opacity="1"><g transform="translate(467.023008, 229.948458)"><g><path d="M 8.203125 -49.515625 C 8.203125 -82.097656 8.253906 -98.441406 8.359375 -98.546875 C 8.359375 -98.660156 11.75 -98.71875 18.53125 -98.71875 C 25.53125 -98.71875 29.300781 -98.660156 29.84375 -98.546875 L 30.828125 -98.390625 L 30.828125 -0.484375 L 8.203125 -0.484375 Z M 8.203125 -49.515625 "/></g></g></g><g fill="#206653" fill-opacity="1"><g transform="translate(506.050335, 229.948458)"><g><path d="M 3.28125 -90.1875 C 3.28125 -95.332031 3.332031 -97.957031 3.4375 -98.0625 L 44.4375 -98.0625 C 58.644531 -98.0625 69.03125 -98.0625 75.59375 -98.0625 C 82.15625 -98.0625 85.488281 -98.007812 85.59375 -97.90625 L 85.921875 -97.90625 L 85.921875 -82.640625 L 55.921875 -82.640625 L 55.921875 0 L 33.28125 0 L 33.28125 -82.640625 L 3.28125 -82.640625 Z M 3.28125 -90.1875 "/></g></g></g><g fill="#206653" fill-opacity="1"><g transform="translate(595.25564, 229.948458)"><g><path d="M 40.671875 0 L 40.671875 -47.71875 L 40.171875 -48.21875 C 40.066406 -48.320312 39.738281 -48.726562 39.1875 -49.4375 C 38.644531 -50.144531 38.046875 -50.9375 37.390625 -51.8125 C 36.734375 -52.6875 36.101562 -53.503906 35.5 -54.265625 C 34.894531 -55.035156 34.59375 -55.421875 34.59375 -55.421875 C 33.9375 -56.296875 33.335938 -57.035156 32.796875 -57.640625 C 32.253906 -58.242188 31.765625 -58.816406 31.328125 -59.359375 C 30.992188 -59.796875 30.742188 -60.097656 30.578125 -60.265625 C 30.421875 -60.429688 30.285156 -60.566406 30.171875 -60.671875 C 30.066406 -60.671875 30.039062 -60.722656 30.09375 -60.828125 C 30.144531 -60.941406 29.679688 -61.546875 28.703125 -62.640625 C 27.492188 -64.171875 26.835938 -65.046875 26.734375 -65.265625 C 26.515625 -65.585938 26.210938 -65.96875 25.828125 -66.40625 C 25.441406 -66.84375 25.03125 -67.335938 24.59375 -67.890625 C 23.394531 -69.421875 22.4375 -70.625 21.71875 -71.5 C 21.007812 -72.375 20.601562 -72.921875 20.5 -73.140625 C 19.507812 -74.335938 18.6875 -75.320312 18.03125 -76.09375 C 17.59375 -76.53125 17.289062 -76.859375 17.125 -77.078125 C 16.96875 -77.296875 16.832031 -77.457031 16.71875 -77.5625 C 16.289062 -78.113281 15.582031 -79.015625 14.59375 -80.265625 C 13.613281 -81.523438 12.6875 -82.753906 11.8125 -83.953125 C 10.9375 -85.160156 10.0625 -86.335938 9.1875 -87.484375 C 8.3125 -88.628906 7.328125 -89.75 6.234375 -90.84375 C 5.796875 -91.5 5.519531 -91.9375 5.40625 -92.15625 C 5.1875 -92.375 4.992188 -92.59375 4.828125 -92.8125 C 4.671875 -93.03125 4.535156 -93.195312 4.421875 -93.3125 C 4.316406 -93.53125 4.15625 -93.75 3.9375 -93.96875 C 3.71875 -94.1875 3.390625 -94.625 2.953125 -95.28125 C 2.515625 -95.820312 2.15625 -96.253906 1.875 -96.578125 C 1.601562 -96.910156 1.414062 -97.132812 1.3125 -97.25 C 1.09375 -97.6875 0.984375 -97.957031 0.984375 -98.0625 L 0.8125 -98.546875 L 24.765625 -98.546875 C 25.085938 -98.546875 25.304688 -98.492188 25.421875 -98.390625 C 25.421875 -98.171875 25.773438 -97.675781 26.484375 -96.90625 C 27.191406 -96.144531 27.765625 -95.4375 28.203125 -94.78125 C 28.535156 -94.34375 28.972656 -93.851562 29.515625 -93.3125 C 29.953125 -92.757812 30.171875 -92.457031 30.171875 -92.40625 C 30.171875 -92.351562 30.335938 -92.109375 30.671875 -91.671875 C 30.992188 -91.335938 31.316406 -91.003906 31.640625 -90.671875 C 31.972656 -90.347656 32.25 -89.96875 32.46875 -89.53125 C 32.6875 -89.207031 32.90625 -88.9375 33.125 -88.71875 C 33.34375 -88.5 33.503906 -88.28125 33.609375 -88.0625 C 33.941406 -87.84375 34.21875 -87.515625 34.4375 -87.078125 C 34.65625 -86.859375 34.816406 -86.75 34.921875 -86.75 C 35.140625 -86.75 35.191406 -86.691406 35.078125 -86.578125 C 34.972656 -86.472656 35.085938 -86.253906 35.421875 -85.921875 C 35.640625 -85.484375 36.128906 -84.882812 36.890625 -84.125 C 37.109375 -83.90625 37.410156 -83.546875 37.796875 -83.046875 C 38.179688 -82.554688 38.644531 -81.878906 39.1875 -81.015625 C 39.40625 -80.796875 39.707031 -80.4375 40.09375 -79.9375 C 40.476562 -79.445312 40.941406 -78.820312 41.484375 -78.0625 C 42.472656 -76.96875 43.128906 -76.144531 43.453125 -75.59375 C 44.660156 -74.0625 45.644531 -72.832031 46.40625 -71.90625 C 47.175781 -70.976562 47.722656 -70.238281 48.046875 -69.6875 C 48.378906 -69.25 48.597656 -69.03125 48.703125 -69.03125 C 48.816406 -68.8125 48.976562 -68.59375 49.1875 -68.375 C 49.40625 -68.15625 49.625 -67.882812 49.84375 -67.5625 C 50.5 -66.570312 50.9375 -65.96875 51.15625 -65.75 C 51.8125 -65.101562 52.140625 -65 52.140625 -65.4375 C 52.140625 -65.539062 52.195312 -65.644531 52.3125 -65.75 C 52.414062 -65.75 53.453125 -67.0625 55.421875 -69.6875 C 56.078125 -70.5625 57.003906 -71.789062 58.203125 -73.375 C 59.410156 -74.96875 60.945312 -76.910156 62.8125 -79.203125 C 63.351562 -79.859375 63.953125 -80.625 64.609375 -81.5 C 65.265625 -82.375 66.03125 -83.359375 66.90625 -84.453125 C 68.976562 -87.078125 70.644531 -89.207031 71.90625 -90.84375 C 73.164062 -92.488281 74.066406 -93.640625 74.609375 -94.296875 L 75.109375 -94.953125 L 76.09375 -96.421875 C 77.070312 -97.734375 77.617188 -98.390625 77.734375 -98.390625 C 77.835938 -98.492188 82.046875 -98.546875 90.359375 -98.546875 L 102.8125 -98.546875 C 102.8125 -98.441406 102.703125 -98.253906 102.484375 -97.984375 C 102.265625 -97.710938 102.101562 -97.46875 102 -97.25 L 101.5 -96.59375 C 101.28125 -96.375 101.085938 -96.15625 100.921875 -95.9375 C 100.765625 -95.71875 100.519531 -95.390625 100.1875 -94.953125 C 99.425781 -93.960938 98.609375 -92.867188 97.734375 -91.671875 C 97.628906 -91.554688 97.492188 -91.390625 97.328125 -91.171875 C 97.160156 -90.953125 96.859375 -90.625 96.421875 -90.1875 C 95.878906 -89.53125 95.222656 -88.679688 94.453125 -87.640625 C 93.691406 -86.609375 92.765625 -85.378906 91.671875 -83.953125 C 89.484375 -81.003906 87.785156 -78.820312 86.578125 -77.40625 C 86.359375 -77.1875 86.140625 -76.96875 85.921875 -76.75 C 85.703125 -76.53125 85.484375 -76.203125 85.265625 -75.765625 C 84.941406 -75.210938 84.234375 -74.335938 83.140625 -73.140625 C 82.484375 -72.265625 81.769531 -71.332031 81 -70.34375 C 80.238281 -69.363281 79.476562 -68.488281 78.71875 -67.71875 C 78.382812 -67.28125 78.160156 -67.0625 78.046875 -67.0625 C 77.941406 -67.0625 77.453125 -66.300781 76.578125 -64.78125 C 75.597656 -63.789062 74.78125 -62.804688 74.125 -61.828125 C 73.570312 -61.054688 73.132812 -60.5625 72.8125 -60.34375 C 72.8125 -60.238281 72.78125 -60.1875 72.71875 -60.1875 C 72.664062 -60.1875 72.640625 -60.128906 72.640625 -60.015625 L 72.15625 -59.359375 L 71.828125 -59.03125 C 71.390625 -58.488281 71.03125 -58.023438 70.75 -57.640625 C 70.476562 -57.253906 70.234375 -56.953125 70.015625 -56.734375 L 68.375 -54.765625 C 67.613281 -53.671875 67.066406 -52.960938 66.734375 -52.640625 C 65.972656 -51.867188 64.9375 -50.613281 63.625 -48.875 L 62.96875 -47.890625 L 62.96875 -23.9375 L 62.8125 0 Z M 40.671875 0 "/></g></g></g><g fill="#206653" fill-opacity="1"><g transform="translate(698.891177, 229.948458)"><g/></g></g><g fill="#206653" fill-opacity="1"><g transform="translate(756.284293, 229.948458)"><g><path d="M 8.203125 -49.515625 C 8.203125 -82.097656 8.253906 -98.441406 8.359375 -98.546875 C 8.359375 -98.660156 11.75 -98.71875 18.53125 -98.71875 C 25.53125 -98.71875 29.300781 -98.660156 29.84375 -98.546875 L 30.828125 -98.390625 L 30.828125 -0.484375 L 8.203125 -0.484375 Z M 8.203125 -49.515625 "/></g></g></g><g fill="#206653" fill-opacity="1"><g transform="translate(795.31162, 229.948458)"><g><path d="M 8.203125 -98.234375 L 31 -98.234375 L 66.078125 -37.0625 L 66.40625 -98.234375 L 88.71875 -98.390625 L 88.875 0.15625 L 65.75 0.15625 L 30.5 -60.34375 L 30.5 0 L 8.203125 0 Z M 8.203125 -98.234375 "/></g></g></g><g fill="#206653" fill-opacity="1"><g transform="translate(892.387953, 229.948458)"><g><path d="M 78.875 -98.390625 L 78.71875 -82.96875 L 29.1875 -82.96875 L 29.1875 -58.21875 L 79.203125 -58.21875 L 79.203125 0 L 6.5625 0 L 6.5625 -15.578125 L 57.390625 -15.578125 L 57.5625 -42.140625 L 6.5625 -42.140625 L 6.5625 -98.390625 Z M 78.875 -98.390625 "/></g></g></g><g fill="#206653" fill-opacity="1"><g transform="translate(978.149638, 229.948458)"><g><path d="M 8.203125 -49.515625 C 8.203125 -82.097656 8.253906 -98.441406 8.359375 -98.546875 C 8.359375 -98.660156 11.75 -98.71875 18.53125 -98.71875 C 25.53125 -98.71875 29.300781 -98.660156 29.84375 -98.546875 L 30.828125 -98.390625 L 30.828125 -0.484375 L 8.203125 -0.484375 Z M 8.203125 -49.515625 "/></g></g></g><g fill="#206653" fill-opacity="1"><g transform="translate(1017.176965, 229.948458)"><g><path d="M 8.203125 -49.359375 C 8.203125 -82.046875 8.253906 -98.441406 8.359375 -98.546875 L 87.078125 -98.546875 L 87.078125 -82.96875 L 30.671875 -82.96875 L 30.671875 -16.078125 L 65.109375 -16.078125 L 65.109375 -42.640625 L 56.40625 -42.796875 L 48.546875 -42.796875 L 48.546875 -57.890625 L 67.5625 -57.890625 C 73.90625 -57.992188 78.6875 -58.046875 81.90625 -58.046875 C 85.132812 -58.046875 86.800781 -58.046875 86.90625 -58.046875 C 87.125 -57.941406 87.125 -49.742188 86.90625 -33.453125 L 86.90625 -0.484375 L 8.203125 -0.484375 Z M 8.203125 -49.359375 "/></g></g></g><g fill="#206653" fill-opacity="1"><g transform="translate(1110.809767, 229.948458)"><g><path d="M 8.53125 -98.390625 C 8.53125 -98.492188 12.191406 -98.546875 19.515625 -98.546875 L 30.671875 -98.546875 C 30.671875 -98.441406 30.671875 -96.722656 30.671875 -93.390625 C 30.671875 -90.054688 30.722656 -85.054688 30.828125 -78.390625 L 30.828125 -58.21875 L 65.109375 -58.21875 L 65.109375 -78.21875 C 65.109375 -91.5625 65.160156 -98.285156 65.265625 -98.390625 C 65.378906 -98.492188 69.097656 -98.546875 76.421875 -98.546875 L 87.5625 -98.546875 L 87.5625 -0.65625 C 87.457031 -0.539062 83.6875 -0.484375 76.25 -0.484375 L 65.109375 -0.484375 L 65.109375 -42.46875 L 47.71875 -42.640625 L 30.671875 -42.640625 L 30.671875 -0.65625 L 8.203125 -0.65625 L 8.203125 -49.359375 C 8.421875 -82.046875 8.53125 -98.390625 8.53125 -98.390625 Z M 8.53125 -98.390625 "/></g></g></g><g fill="#206653" fill-opacity="1"><g transform="translate(1206.574232, 229.948458)"><g><path d="M 3.28125 -90.1875 C 3.28125 -95.332031 3.332031 -97.957031 3.4375 -98.0625 L 44.4375 -98.0625 C 58.644531 -98.0625 69.03125 -98.0625 75.59375 -98.0625 C 82.15625 -98.0625 85.488281 -98.007812 85.59375 -97.90625 L 85.921875 -97.90625 L 85.921875 -82.640625 L 55.921875 -82.640625 L 55.921875 0 L 33.28125 0 L 33.28125 -82.640625 L 3.28125 -82.640625 Z M 3.28125 -90.1875 "/></g></g></g><g fill="#206653" fill-opacity="1"><g transform="translate(1295.779537, 229.948458)"><g><path d="M 78.875 -98.390625 L 78.71875 -82.96875 L 29.1875 -82.96875 L 29.1875 -58.21875 L 79.203125 -58.21875 L 79.203125 0 L 6.5625 0 L 6.5625 -15.578125 L 57.390625 -15.578125 L 57.5625 -42.140625 L 6.5625 -42.140625 L 6.5625 -98.390625 Z M 78.875 -98.390625 "/></g></g></g></svg>